<svg width="32" height="33" viewBox="0 0 32 33" fill="none" xmlns="http://www.w3.org/2000/svg">
<path d="M10.6664 5.01732C10.5544 5.04665 10.4718 5.08932 10.0184 5.33998C9.91709 5.39598 9.80776 5.48132 9.76776 5.53732C9.72776 5.59065 9.66109 5.67065 9.61843 5.71865C9.56243 5.77732 9.53843 5.83065 9.54109 5.88399C9.54643 6.07865 9.66909 6.22265 10.6798 7.24665C11.2211 7.79599 11.8291 8.41465 12.0264 8.61999C12.2264 8.82532 13.1091 9.72399 13.9864 10.62C16.1251 12.796 16.4584 13.1453 17.2664 14.06C18.5278 15.4867 19.2558 16.2387 19.5704 16.444C19.6664 16.5053 19.8984 16.6333 20.0878 16.7293C20.3704 16.8733 20.4264 16.9107 20.3971 16.9373C20.3758 16.956 20.2051 17.0973 20.0158 17.2493C19.6958 17.5053 19.4584 17.7107 18.3464 18.6867C17.9518 19.0333 17.2264 19.66 16.7598 20.06C16.3811 20.38 15.7544 20.9427 15.2798 21.38C14.7704 21.852 13.3118 23.244 12.6131 23.9267C12.2691 24.2627 11.7944 24.724 11.5624 24.9533C10.9598 25.54 10.6318 25.8893 10.4211 26.1667C10.3224 26.2973 10.1971 26.46 10.1438 26.5267C10.0904 26.5933 10.0238 26.6947 9.99443 26.7507C9.88243 26.9667 9.98109 27.4253 10.1784 27.6093C10.2558 27.6813 10.5438 27.8387 10.5784 27.828C10.5918 27.8253 10.6371 27.8413 10.6798 27.8653C10.8318 27.9453 11.1144 27.9747 11.5891 27.9613C12.2318 27.94 12.3758 27.8893 12.8664 27.492C13.3571 27.092 13.7118 26.708 14.9331 25.2467C16.3944 23.5 16.9144 22.9053 18.2238 21.5027C18.7064 20.9827 19.4638 20.1267 19.7598 19.7667C19.8691 19.6307 20.1091 19.3373 20.2931 19.1133C20.7971 18.4973 21.1544 18.068 21.4798 17.692C21.7571 17.372 21.7784 17.3533 21.8744 17.3533C21.9704 17.3533 21.9758 17.348 22.0531 17.1853C22.0984 17.092 22.1331 16.9987 22.1331 16.9773C22.1331 16.956 22.1518 16.916 22.1731 16.8893C22.1944 16.86 22.2131 16.82 22.2131 16.8013C22.2131 16.78 22.2398 16.7293 22.2691 16.6867L22.3278 16.612L22.2664 16.348C22.2344 16.204 22.2024 16.068 22.1971 16.044C22.1838 15.9933 22.0771 15.94 21.9891 15.94C21.9358 15.94 21.9224 15.9187 21.8931 15.7853C21.8131 15.428 21.6104 14.98 21.4184 14.74C21.3651 14.6733 21.1038 14.3667 20.8398 14.06C20.5731 13.7507 20.0558 13.14 19.6904 12.7C19.3224 12.26 18.8504 11.708 18.6398 11.4733C18.1251 10.8973 16.9118 9.68932 15.9198 8.76399C13.9091 6.88932 13.7571 6.76398 12.4664 5.95332C12.1011 5.72399 11.6318 5.42265 11.4264 5.28665C10.9464 4.97198 10.8984 4.95332 10.6664 5.01732Z" fill="black"/>
</svg>
