<svg width="32" height="33" viewBox="0 0 32 33" fill="none" xmlns="http://www.w3.org/2000/svg">
<path d="M5.23473 10.1293C5.20539 10.1399 5.17073 10.1639 5.16006 10.1799C5.15206 10.1959 5.08006 10.2546 5.00273 10.3133C4.85873 10.4173 4.83206 10.4599 4.55739 10.9693C4.42673 11.2093 4.38406 11.3959 4.42673 11.5319C4.44539 11.5879 4.57073 11.8013 4.70673 12.0066C4.84273 12.2119 5.14406 12.6813 5.37339 13.0466C6.18406 14.3373 6.30939 14.4893 8.18406 16.5C9.10939 17.492 10.3174 18.7053 10.8934 19.22C11.1281 19.4306 11.6801 19.9026 12.1201 20.2706C12.5601 20.636 13.1734 21.1533 13.4801 21.42C13.7894 21.684 14.0934 21.9453 14.1601 21.9986C14.4001 22.1906 14.8481 22.3933 15.2081 22.4733C15.3387 22.5026 15.3601 22.516 15.3601 22.5693C15.3601 22.6573 15.4134 22.764 15.4641 22.7773C15.4881 22.7826 15.6241 22.8146 15.7681 22.8466L16.0321 22.908L16.1067 22.8493C16.1494 22.82 16.2001 22.7933 16.2214 22.7933C16.2401 22.7933 16.2801 22.7746 16.3094 22.7533C16.3361 22.732 16.3761 22.7133 16.3974 22.7133C16.4187 22.7133 16.5121 22.6786 16.6054 22.6333C16.7681 22.556 16.7734 22.5506 16.7734 22.4546C16.7734 22.3586 16.7921 22.3373 17.1121 22.06C17.4881 21.7346 17.9174 21.3773 18.5334 20.8733C18.7574 20.6893 19.0507 20.4493 19.1867 20.34C19.5467 20.044 20.4027 19.2866 20.9227 18.804C22.3254 17.4946 22.9201 16.9746 24.6667 15.5133C26.1281 14.2919 26.5121 13.9373 26.9121 13.4466C27.3094 12.9559 27.3601 12.8119 27.3814 12.1693C27.3947 11.6946 27.3654 11.4119 27.2854 11.2599C27.2614 11.2146 27.2454 11.1719 27.2481 11.1586C27.2587 11.1239 27.1014 10.8359 27.0294 10.7586C26.8454 10.5613 26.3867 10.4626 26.1707 10.5746C26.1147 10.6039 26.0134 10.6706 25.9467 10.7239C25.8801 10.7773 25.7201 10.9026 25.5867 11.0013C25.3094 11.2119 24.9601 11.5399 24.3734 12.1426C24.1441 12.3746 23.6827 12.8493 23.3467 13.1933C22.6641 13.8919 21.2721 15.3506 20.8001 15.86C20.3627 16.3346 19.8001 16.9613 19.4801 17.34C19.0801 17.8066 18.4534 18.532 18.1067 18.9266C17.1307 20.0386 16.9254 20.276 16.6694 20.596C16.5174 20.7853 16.3761 20.956 16.3574 20.9773C16.3307 21.0066 16.2934 20.9506 16.1494 20.668C16.0534 20.4786 15.9254 20.2466 15.8641 20.1506C15.6587 19.836 14.9067 19.108 13.4801 17.8466C12.5654 17.0386 12.2161 16.7053 10.0401 14.5666C9.14672 13.6893 8.24539 12.8066 8.04006 12.6066C7.83473 12.4093 7.22406 11.8066 6.68006 11.2706C6.10673 10.7026 5.64006 10.2626 5.56806 10.2226C5.41073 10.1319 5.30673 10.1026 5.23473 10.1293Z" fill="black"/>
</svg>
